<svg id="visual" viewBox="0 0 900 600" width="900" height="600" xmlns="http://www.w3.org/2000/svg" xmlns:xlink="http://www.w3.org/1999/xlink" version="1.1"><rect x="0" y="0" width="900" height="600" fill="#ededee"></rect><path d="M0 218L15 235C30 252 60 286 90 303.3C120 320.7 150 321.3 180 302.3C210 283.3 240 244.7 270 241.8C300 239 330 272 360 286.5C390 301 420 297 450 279.2C480 261.3 510 229.7 540 231.7C570 233.7 600 269.3 630 283.2C660 297 690 289 720 287.8C750 286.7 780 292.3 810 293.3C840 294.3 870 290.7 885 288.8L900 287L900 601L885 601C870 601 840 601 810 601C780 601 750 601 720 601C690 601 660 601 630 601C600 601 570 601 540 601C510 601 480 601 450 601C420 601 390 601 360 601C330 601 300 601 270 601C240 601 210 601 180 601C150 601 120 601 90 601C60 601 30 601 15 601L0 601Z" fill="#8dadd0"></path><path d="M0 267L15 266.7C30 266.3 60 265.7 90 267.7C120 269.7 150 274.3 180 289.3C210 304.3 240 329.7 270 333.2C300 336.7 330 318.3 360 318.8C390 319.3 420 338.7 450 332.2C480 325.7 510 293.3 540 287.7C570 282 600 303 630 316C660 329 690 334 720 325.3C750 316.7 780 294.3 810 282.8C840 271.3 870 270.7 885 270.3L900 270L900 601L885 601C870 601 840 601 810 601C780 601 750 601 720 601C690 601 660 601 630 601C600 601 570 601 540 601C510 601 480 601 450 601C420 601 390 601 360 601C330 601 300 601 270 601C240 601 210 601 180 601C150 601 120 601 90 601C60 601 30 601 15 601L0 601Z" fill="#7a98bd"></path><path d="M0 279L15 281.5C30 284 60 289 90 302.2C120 315.3 150 336.7 180 350.8C210 365 240 372 270 375.2C300 378.3 330 377.7 360 378.2C390 378.7 420 380.3 450 365.2C480 350 510 318 540 313.8C570 309.7 600 333.3 630 347C660 360.7 690 364.3 720 355.7C750 347 780 326 810 325.2C840 324.3 870 343.7 885 353.3L900 363L900 601L885 601C870 601 840 601 810 601C780 601 750 601 720 601C690 601 660 601 630 601C600 601 570 601 540 601C510 601 480 601 450 601C420 601 390 601 360 601C330 601 300 601 270 601C240 601 210 601 180 601C150 601 120 601 90 601C60 601 30 601 15 601L0 601Z" fill="#6784aa"></path><path d="M0 407L15 393.7C30 380.3 60 353.7 90 343.3C120 333 150 339 180 348.8C210 358.7 240 372.3 270 381.8C300 391.3 330 396.7 360 403C390 409.3 420 416.7 450 410C480 403.3 510 382.7 540 365.7C570 348.7 600 335.3 630 326.7C660 318 690 314 720 312.2C750 310.3 780 310.7 810 329.5C840 348.3 870 385.7 885 404.3L900 423L900 601L885 601C870 601 840 601 810 601C780 601 750 601 720 601C690 601 660 601 630 601C600 601 570 601 540 601C510 601 480 601 450 601C420 601 390 601 360 601C330 601 300 601 270 601C240 601 210 601 180 601C150 601 120 601 90 601C60 601 30 601 15 601L0 601Z" fill="#557097"></path><path d="M0 408L15 409.5C30 411 60 414 90 413.5C120 413 150 409 180 407.8C210 406.7 240 408.3 270 408.8C300 409.3 330 408.7 360 402.2C390 395.7 420 383.3 450 376C480 368.7 510 366.3 540 365.3C570 364.3 600 364.7 630 369C660 373.3 690 381.7 720 392.2C750 402.7 780 415.3 810 410.2C840 405 870 382 885 370.5L900 359L900 601L885 601C870 601 840 601 810 601C780 601 750 601 720 601C690 601 660 601 630 601C600 601 570 601 540 601C510 601 480 601 450 601C420 601 390 601 360 601C330 601 300 601 270 601C240 601 210 601 180 601C150 601 120 601 90 601C60 601 30 601 15 601L0 601Z" fill="#445d85"></path><path d="M0 434L15 432.2C30 430.3 60 426.7 90 427.3C120 428 150 433 180 431.7C210 430.3 240 422.7 270 430.2C300 437.7 330 460.3 360 465C390 469.7 420 456.3 450 451.8C480 447.3 510 451.7 540 447.7C570 443.7 600 431.3 630 430.8C660 430.3 690 441.7 720 443.8C750 446 780 439 810 438C840 437 870 442 885 444.5L900 447L900 601L885 601C870 601 840 601 810 601C780 601 750 601 720 601C690 601 660 601 630 601C600 601 570 601 540 601C510 601 480 601 450 601C420 601 390 601 360 601C330 601 300 601 270 601C240 601 210 601 180 601C150 601 120 601 90 601C60 601 30 601 15 601L0 601Z" fill="#334a73"></path><path d="M0 459L15 458.5C30 458 60 457 90 458.7C120 460.3 150 464.7 180 467C210 469.3 240 469.7 270 470.8C300 472 330 474 360 479.5C390 485 420 494 450 490.3C480 486.7 510 470.3 540 470.2C570 470 600 486 630 493.3C660 500.7 690 499.3 720 491.2C750 483 780 468 810 462.8C840 457.7 870 462.3 885 464.7L900 467L900 601L885 601C870 601 840 601 810 601C780 601 750 601 720 601C690 601 660 601 630 601C600 601 570 601 540 601C510 601 480 601 450 601C420 601 390 601 360 601C330 601 300 601 270 601C240 601 210 601 180 601C150 601 120 601 90 601C60 601 30 601 15 601L0 601Z" fill="#233861"></path><path d="M0 508L15 511.8C30 515.7 60 523.3 90 523.7C120 524 150 517 180 510C210 503 240 496 270 497C300 498 330 507 360 506.2C390 505.3 420 494.7 450 495.8C480 497 510 510 540 515.3C570 520.7 600 518.3 630 516.8C660 515.3 690 514.7 720 510.8C750 507 780 500 810 500.8C840 501.7 870 510.3 885 514.7L900 519L900 601L885 601C870 601 840 601 810 601C780 601 750 601 720 601C690 601 660 601 630 601C600 601 570 601 540 601C510 601 480 601 450 601C420 601 390 601 360 601C330 601 300 601 270 601C240 601 210 601 180 601C150 601 120 601 90 601C60 601 30 601 15 601L0 601Z" fill="#122750"></path><path d="M0 554L15 550.5C30 547 60 540 90 535.8C120 531.7 150 530.3 180 533.2C210 536 240 543 270 542.3C300 541.7 330 533.3 360 531.5C390 529.7 420 534.3 450 538C480 541.7 510 544.3 540 541.8C570 539.3 600 531.7 630 528C660 524.3 690 524.7 720 529.7C750 534.7 780 544.3 810 548.7C840 553 870 552 885 551.5L900 551L900 601L885 601C870 601 840 601 810 601C780 601 750 601 720 601C690 601 660 601 630 601C600 601 570 601 540 601C510 601 480 601 450 601C420 601 390 601 360 601C330 601 300 601 270 601C240 601 210 601 180 601C150 601 120 601 90 601C60 601 30 601 15 601L0 601Z" fill="#00173f"></path></svg>